<svg id="Grupo_46" data-name="Grupo 46" xmlns="http://www.w3.org/2000/svg" xmlns:xlink="http://www.w3.org/1999/xlink" width="71.055" height="72" viewBox="0 0 71.055 72">
  <defs>
    <clipPath id="clip-path">
      <rect id="Rectángulo_136" data-name="Rectángulo 136" width="71.055" height="72" fill="none"/>
    </clipPath>
  </defs>
  <g id="Grupo_53" data-name="Grupo 53" clip-path="url(#clip-path)">
    <path id="Trazado_404" data-name="Trazado 404" d="M3.9,166.863a4.059,4.059,0,0,1-1.571-.3,3.6,3.6,0,0,1-1.226-.828,3.715,3.715,0,0,1-.8-1.275,4.834,4.834,0,0,1,.006-3.28,3.856,3.856,0,0,1,.8-1.287,3.619,3.619,0,0,1,1.232-.84,4.026,4.026,0,0,1,1.577-.3,4.06,4.06,0,0,1,1.571.3,3.607,3.607,0,0,1,1.226.827,3.721,3.721,0,0,1,.8,1.281,4.9,4.9,0,0,1,0,3.286,3.727,3.727,0,0,1-.8,1.287,3.616,3.616,0,0,1-1.238.834,4.105,4.105,0,0,1-1.577.3m.024-.713a3.03,3.03,0,0,0,1.22-.241,2.812,2.812,0,0,0,.961-.683,3.115,3.115,0,0,0,.628-1.051,3.882,3.882,0,0,0,.224-1.347,3.817,3.817,0,0,0-.23-1.341,3.26,3.26,0,0,0-.634-1.063,2.9,2.9,0,0,0-.967-.7,2.948,2.948,0,0,0-1.226-.254,2.965,2.965,0,0,0-1.22.248,2.884,2.884,0,0,0-.961.689,3.123,3.123,0,0,0-.628,1.051A3.886,3.886,0,0,0,.871,162.8a3.8,3.8,0,0,0,.23,1.347,3.265,3.265,0,0,0,.634,1.057,2.817,2.817,0,0,0,.967.695,3,3,0,0,0,1.226.248" transform="translate(-0.015 -94.864)" fill="#fff"/>
    <path id="Trazado_405" data-name="Trazado 405" d="M21.535,161.129a.421.421,0,0,1-.3-.078.32.32,0,0,1-.078-.235v-.073a.321.321,0,0,1,.078-.235.421.421,0,0,1,.3-.078h.846V159.9a2.345,2.345,0,0,1,.429-1.516,1.536,1.536,0,0,1,1.263-.526,1.477,1.477,0,0,1,.864.205.583.583,0,0,1,.284.471.4.4,0,0,1-.1.3q-.1.1-.127.072a1.244,1.244,0,0,0-.38-.241,1.318,1.318,0,0,0-.538-.109.794.794,0,0,0-.713.326,1.95,1.95,0,0,0-.217,1.051v.5H24.3a.42.42,0,0,1,.3.078.321.321,0,0,1,.079.235v.073a.32.32,0,0,1-.079.235.421.421,0,0,1-.3.078H23.154v4.724a.383.383,0,0,1-.091.3.369.369,0,0,1-.248.078h-.085a.391.391,0,0,1-.254-.078.367.367,0,0,1-.1-.3v-4.724Z" transform="translate(-12.644 -94.325)" fill="#fff"/>
    <path id="Trazado_406" data-name="Trazado 406" d="M33.135,159.135a.454.454,0,0,1-.507-.52.465.465,0,0,1,.532-.52.454.454,0,0,1,.507.52.465.465,0,0,1-.532.52m-.29,7.159a.366.366,0,0,1-.1-.3v-5.1a.365.365,0,0,1,.1-.3.388.388,0,0,1,.254-.079h.085a.388.388,0,0,1,.254.079.366.366,0,0,1,.1.3V166a.367.367,0,0,1-.1.3.39.39,0,0,1-.254.078H33.1a.39.39,0,0,1-.254-.078" transform="translate(-19.497 -94.469)" fill="#fff"/>
    <path id="Trazado_407" data-name="Trazado 407" d="M41.053,169.931a2.99,2.99,0,0,1-1.172-.229,2.847,2.847,0,0,1-1.565-1.595,3.2,3.2,0,0,1-.223-1.209,3.158,3.158,0,0,1,.223-1.2,2.9,2.9,0,0,1,.622-.955,2.811,2.811,0,0,1,.943-.628,3.054,3.054,0,0,1,1.172-.223,3.1,3.1,0,0,1,1.093.175,2.7,2.7,0,0,1,.773.429,1.874,1.874,0,0,1,.459.526,1,1,0,0,1,.151.465.286.286,0,0,1-.078.211.576.576,0,0,1-.175.121.54.54,0,0,1-.175.049c-.053,0-.083,0-.091-.006a2.326,2.326,0,0,0-.278-.5,1.92,1.92,0,0,0-.4-.4,1.815,1.815,0,0,0-.55-.272,2.476,2.476,0,0,0-.725-.1,2.173,2.173,0,0,0-.858.169,2.015,2.015,0,0,0-.689.478,2.215,2.215,0,0,0-.453.731,2.736,2.736,0,0,0,0,1.861,2.287,2.287,0,0,0,.453.737,2.064,2.064,0,0,0,.683.489,2.093,2.093,0,0,0,.864.175,2.473,2.473,0,0,0,.725-.1,1.806,1.806,0,0,0,.55-.272,1.92,1.92,0,0,0,.4-.4,2.31,2.31,0,0,0,.278-.5q.011-.023.091-.012a.736.736,0,0,1,.175.055.575.575,0,0,1,.175.121.285.285,0,0,1,.078.211,1,1,0,0,1-.151.465,1.874,1.874,0,0,1-.459.526,2.705,2.705,0,0,1-.773.429,3.112,3.112,0,0,1-1.093.175" transform="translate(-22.762 -97.931)" fill="#fff"/>
    <path id="Trazado_408" data-name="Trazado 408" d="M54.961,159.135a.454.454,0,0,1-.507-.52.465.465,0,0,1,.532-.52.454.454,0,0,1,.507.52.465.465,0,0,1-.532.52m-.29,7.159a.366.366,0,0,1-.1-.3v-5.1a.365.365,0,0,1,.1-.3.387.387,0,0,1,.254-.079h.085a.388.388,0,0,1,.254.079.366.366,0,0,1,.1.3V166a.367.367,0,0,1-.1.3.39.39,0,0,1-.254.078h-.085a.39.39,0,0,1-.254-.078" transform="translate(-32.539 -94.469)" fill="#fff"/>
    <path id="Trazado_409" data-name="Trazado 409" d="M62.444,164.18a2.244,2.244,0,0,1,1.166-.29,2.555,2.555,0,0,1,1,.181,1.889,1.889,0,0,1,.713.514,2.229,2.229,0,0,1,.429.8,3.524,3.524,0,0,1,.145,1.039v3.033a.367.367,0,0,1-.1.3.39.39,0,0,1-.254.078h-.085a.39.39,0,0,1-.254-.078.367.367,0,0,1-.1-.3v-2.985a2.071,2.071,0,0,0-.4-1.359,1.4,1.4,0,0,0-1.142-.489,1.971,1.971,0,0,0-1.16.338,2.183,2.183,0,0,0-.737.882v3.613a.367.367,0,0,1-.1.3.39.39,0,0,1-.254.078H61.23a.391.391,0,0,1-.254-.078.367.367,0,0,1-.1-.3v-5.389c0-.016.026-.034.078-.054a.521.521,0,0,1,.188-.031.5.5,0,0,1,.356.145.886.886,0,0,1,.151.617v.181a2.389,2.389,0,0,1,.791-.749" transform="translate(-36.378 -97.931)" fill="#fff"/>
    <path id="Trazado_410" data-name="Trazado 410" d="M80.462,166.149a1.493,1.493,0,0,0-.417-1.142,1.689,1.689,0,0,0-1.2-.393,1.978,1.978,0,0,0-1.148.308,2.155,2.155,0,0,0-.689.755.744.744,0,0,1-.224-.066.48.48,0,0,1-.151-.139.412.412,0,0,1-.072-.254.723.723,0,0,1,.151-.381,1.77,1.77,0,0,1,.447-.435,2.864,2.864,0,0,1,.737-.363,3.109,3.109,0,0,1,1.009-.151,2.376,2.376,0,0,1,1.716.592,2.172,2.172,0,0,1,.617,1.643v3.625c0,.016-.027.034-.079.054a.521.521,0,0,1-.187.03.478.478,0,0,1-.351-.145.912.912,0,0,1-.145-.616v-.218a2.27,2.27,0,0,1-.9.786,2.782,2.782,0,0,1-1.25.278,2.193,2.193,0,0,1-1.462-.441,1.453,1.453,0,0,1-.519-1.166,1.511,1.511,0,0,1,1-1.462,8.188,8.188,0,0,1,3-.5h.121ZM78.4,169.267a2.444,2.444,0,0,0,.822-.133,2.071,2.071,0,0,0,.652-.369,1.716,1.716,0,0,0,.435-.556,1.588,1.588,0,0,0,.157-.707v-.532l-.338.012a7.367,7.367,0,0,0-2.235.351,1.009,1.009,0,0,0-.749.978.838.838,0,0,0,.332.7,1.468,1.468,0,0,0,.924.26" transform="translate(-45.618 -97.931)" fill="#fff"/>
    <path id="Trazado_411" data-name="Trazado 411" d="M101.914,159.371a.58.58,0,0,1,.211-.3.486.486,0,0,1,.26-.079.609.609,0,0,1,.332.1q.151.1.127.145l-2.863,7.395a.468.468,0,0,1-.169.229,1,1,0,0,1-.749,0,.465.465,0,0,1-.169-.229l-2.864-7.395q-.024-.048.127-.145a.629.629,0,0,1,.345-.1.537.537,0,0,1,.278.079.565.565,0,0,1,.217.3l2.453,6.621Z" transform="translate(-57.38 -95.007)" fill="#fff"/>
    <path id="Trazado_412" data-name="Trazado 412" d="M115.877,159.135a.454.454,0,0,1-.507-.52.465.465,0,0,1,.532-.52.454.454,0,0,1,.507.52.465.465,0,0,1-.532.52m-.29,7.159a.366.366,0,0,1-.1-.3v-5.1a.365.365,0,0,1,.1-.3.387.387,0,0,1,.254-.079h.085a.388.388,0,0,1,.254.079.366.366,0,0,1,.1.3V166a.367.367,0,0,1-.1.3.39.39,0,0,1-.254.078h-.085a.39.39,0,0,1-.254-.078" transform="translate(-68.938 -94.469)" fill="#fff"/>
    <path id="Trazado_413" data-name="Trazado 413" d="M124.09,163.89a1.037,1.037,0,0,1,.616.157.507.507,0,0,1,.218.435.478.478,0,0,1-.1.326q-.1.109-.121.085a1.162,1.162,0,0,0-.3-.175,1.089,1.089,0,0,0-.4-.066,1.106,1.106,0,0,0-.658.193,1.407,1.407,0,0,0-.441.532,2.861,2.861,0,0,0-.248.8,6.15,6.15,0,0,0-.078,1.021v2.259a.367.367,0,0,1-.1.3.39.39,0,0,1-.254.078h-.085a.39.39,0,0,1-.254-.078.367.367,0,0,1-.1-.3v-5.389c0-.016.026-.034.078-.054a.521.521,0,0,1,.187-.031.5.5,0,0,1,.357.145.886.886,0,0,1,.151.617v.35a1.512,1.512,0,0,1,1.522-1.208" transform="translate(-72.777 -97.931)" fill="#fff"/>
    <path id="Trazado_414" data-name="Trazado 414" d="M131.566,162.905a.422.422,0,0,1-.3-.078.32.32,0,0,1-.078-.235v-.073a.321.321,0,0,1,.078-.235.422.422,0,0,1,.3-.078h.532v-1a.369.369,0,0,1,.1-.3.39.39,0,0,1,.254-.078h.085a.365.365,0,0,1,.248.078.384.384,0,0,1,.091.3v1h1.535a.422.422,0,0,1,.3.078.321.321,0,0,1,.078.235v.073a.32.32,0,0,1-.078.235.422.422,0,0,1-.3.078H132.87v3.274a1.835,1.835,0,0,0,.188.943.724.724,0,0,0,.67.3,1.1,1.1,0,0,0,.52-.115,1.205,1.205,0,0,0,.375-.308q.024-.024.145.066a.377.377,0,0,1,.121.32.64.64,0,0,1-.3.477,1.413,1.413,0,0,1-.882.235,1.494,1.494,0,0,1-1.226-.465,2.123,2.123,0,0,1-.381-1.372v-3.359Z" transform="translate(-78.392 -96.101)" fill="#fff"/>
    <path id="Trazado_415" data-name="Trazado 415" d="M146.258,169.785a2.247,2.247,0,0,1-1.166.29,2.546,2.546,0,0,1-1-.181,1.881,1.881,0,0,1-.713-.514,2.222,2.222,0,0,1-.429-.8,3.524,3.524,0,0,1-.145-1.039V164.5a.366.366,0,0,1,.1-.3.388.388,0,0,1,.254-.079h.084a.388.388,0,0,1,.254.079.367.367,0,0,1,.1.3v2.985a2.03,2.03,0,0,0,.417,1.359,1.476,1.476,0,0,0,1.19.489,1.861,1.861,0,0,0,1.106-.338,2.2,2.2,0,0,0,.731-.882V164.5a.366.366,0,0,1,.1-.3.387.387,0,0,1,.254-.079h.085a.388.388,0,0,1,.254.079.367.367,0,0,1,.1.3v5.389c0,.017-.026.034-.078.054a.522.522,0,0,1-.188.03.5.5,0,0,1-.356-.145.882.882,0,0,1-.151-.616v-.181a2.393,2.393,0,0,1-.792.749" transform="translate(-85.334 -98.075)" fill="#fff"/>
    <path id="Trazado_416" data-name="Trazado 416" d="M162.512,166.149a1.493,1.493,0,0,0-.417-1.142,1.689,1.689,0,0,0-1.2-.393,1.978,1.978,0,0,0-1.148.308,2.155,2.155,0,0,0-.689.755.744.744,0,0,1-.224-.066.48.48,0,0,1-.151-.139.412.412,0,0,1-.072-.254.723.723,0,0,1,.151-.381,1.771,1.771,0,0,1,.447-.435,2.864,2.864,0,0,1,.737-.363,3.109,3.109,0,0,1,1.009-.151,2.375,2.375,0,0,1,1.716.592,2.172,2.172,0,0,1,.617,1.643v3.625c0,.016-.027.034-.079.054a.521.521,0,0,1-.187.03.478.478,0,0,1-.351-.145.912.912,0,0,1-.145-.616v-.218a2.27,2.27,0,0,1-.9.786,2.782,2.782,0,0,1-1.25.278,2.193,2.193,0,0,1-1.462-.441,1.453,1.453,0,0,1-.519-1.166,1.511,1.511,0,0,1,1-1.462,8.187,8.187,0,0,1,3-.5h.121Zm-2.066,3.117a2.444,2.444,0,0,0,.822-.133,2.071,2.071,0,0,0,.652-.369,1.716,1.716,0,0,0,.435-.556,1.588,1.588,0,0,0,.157-.707v-.532l-.338.012a7.367,7.367,0,0,0-2.235.351,1.009,1.009,0,0,0-.749.978.837.837,0,0,0,.332.7,1.468,1.468,0,0,0,.924.26" transform="translate(-94.646 -97.931)" fill="#fff"/>
    <path id="Trazado_417" data-name="Trazado 417" d="M174.7,166.294a.366.366,0,0,1-.1-.3v-7.817q0-.024.078-.054a.546.546,0,0,1,.55.115.859.859,0,0,1,.157.616V166a.367.367,0,0,1-.1.3.39.39,0,0,1-.254.078h-.085a.39.39,0,0,1-.254-.078" transform="translate(-104.333 -94.469)" fill="#fff"/>
    <path id="Trazado_418" data-name="Trazado 418" d="M.511,127.675a1.752,1.752,0,0,1-.427-1.259V116.36a1.753,1.753,0,0,1,.427-1.26,1.549,1.549,0,0,1,1.176-.448H6.309a5.811,5.811,0,0,1,3.487.885,3,3,0,0,1,1.2,2.571,2.658,2.658,0,0,1-.614,1.822,3.641,3.641,0,0,1-1.8,1.03,3.88,3.88,0,0,1,2.207,1.228,3.238,3.238,0,0,1,.708,2.1,3.337,3.337,0,0,1-1.291,2.894,7.164,7.164,0,0,1-4.143.936H1.687a1.548,1.548,0,0,1-1.176-.448m5.174-7.359a2.428,2.428,0,0,0,1.6-.458,1.575,1.575,0,0,0,.541-1.27,1.488,1.488,0,0,0-.51-1.239,2.627,2.627,0,0,0-1.634-.406H3.1v3.373Zm.167,5.517a3.3,3.3,0,0,0,1.936-.427A1.653,1.653,0,0,0,8.349,124a1.5,1.5,0,0,0-.583-1.312,3.327,3.327,0,0,0-1.894-.417H3.1v3.56Z" transform="translate(-0.05 -68.51)" fill="#fff"/>
    <path id="Trazado_419" data-name="Trazado 419" d="M34.41,124.516a2.525,2.525,0,0,0-1.645.479,3.207,3.207,0,0,0-.875,1.083c0,.014-.1.017-.291.01a2.756,2.756,0,0,1-.656-.115,1.6,1.6,0,0,1-.656-.375,1,1,0,0,1-.291-.77,1.722,1.722,0,0,1,.281-.926,2.588,2.588,0,0,1,.854-.8,5.125,5.125,0,0,1,1.437-.572,8.336,8.336,0,0,1,2.03-.219,5.267,5.267,0,0,1,3.6,1.062,3.974,3.974,0,0,1,1.186,3.123v6.017c0,.07-.114.142-.344.219a2.4,2.4,0,0,1-.759.114,1.719,1.719,0,0,1-1.145-.385,1.915,1.915,0,0,1-.583-1.239,3.767,3.767,0,0,1-1.457,1.249,4.55,4.55,0,0,1-2.061.458,3.624,3.624,0,0,1-2.509-.812,2.921,2.921,0,0,1,.687-4.716,11.6,11.6,0,0,1,4.945-.864h.333a1.813,1.813,0,0,0-2.082-2.02m-.4,6.5a2.508,2.508,0,0,0,1.791-.646,2.157,2.157,0,0,0,.687-1.644v-.583l-.541.021a7.546,7.546,0,0,0-2.634.417,1.258,1.258,0,0,0-.885,1.207,1.076,1.076,0,0,0,.427.9,1.828,1.828,0,0,0,1.155.333" transform="translate(-17.7 -73.085)" fill="#fff"/>
    <path id="Trazado_420" data-name="Trazado 420" d="M57.846,136.88a1.877,1.877,0,0,1-.614-.1,2.284,2.284,0,0,1-.52-.25,1.83,1.83,0,0,1-.333-.27c-.076-.083-.107-.146-.094-.188l1.687-3.831a1.371,1.371,0,0,1-.583-.187,1.044,1.044,0,0,1-.375-.458l-3.5-8.12c-.014-.042.021-.111.1-.209a1.489,1.489,0,0,1,.344-.281,3.045,3.045,0,0,1,.52-.25,1.79,1.79,0,0,1,.635-.114,1.6,1.6,0,0,1,.937.292,2.268,2.268,0,0,1,.708,1.166l2.207,5.809,1.957-5.788a2.166,2.166,0,0,1,.708-1.177,1.593,1.593,0,0,1,.916-.3,1.787,1.787,0,0,1,.6.1,2.569,2.569,0,0,1,.52.25,2.112,2.112,0,0,1,.354.271c.083.083.118.146.1.187l-4.622,12.013a2.5,2.5,0,0,1-.76,1.135,1.544,1.544,0,0,1-.906.3" transform="translate(-31.976 -73.27)" fill="#fff"/>
    <path id="Trazado_421" data-name="Trazado 421" d="M84.028,135.343a1.4,1.4,0,0,1-.365,1.1,1.371,1.371,0,0,1-.926.312h-.313a1.468,1.468,0,0,1-.968-.3,1.392,1.392,0,0,1-.364-1.114V122.768c0-.042.111-.107.333-.2a2.038,2.038,0,0,1,.771-.135,2.411,2.411,0,0,1,.583.073,1.358,1.358,0,0,1,.541.281,1.782,1.782,0,0,1,.427.541,2.486,2.486,0,0,1,.239.875,3.813,3.813,0,0,1,1.333-1.384,3.753,3.753,0,0,1,2-.51,4.735,4.735,0,0,1,1.9.375,4.3,4.3,0,0,1,1.489,1.062,4.816,4.816,0,0,1,.968,1.665,7.166,7.166,0,0,1,0,4.383,4.909,4.909,0,0,1-.968,1.686,4.452,4.452,0,0,1-1.5,1.093,4.654,4.654,0,0,1-1.936.4,3.6,3.6,0,0,1-3.248-1.853Zm0-7.141a2.419,2.419,0,0,0,.2.989,2.344,2.344,0,0,0,.541.77,2.418,2.418,0,0,0,.812.5,2.776,2.776,0,0,0,.989.177,2.4,2.4,0,0,0,1.9-.823,3.622,3.622,0,0,0,0-4.33,2.381,2.381,0,0,0-1.884-.823,2.709,2.709,0,0,0-1.582.448,2.813,2.813,0,0,0-.978,1.2Z" transform="translate(-48.456 -73.085)" fill="#fff"/>
    <path id="Trazado_422" data-name="Trazado 422" d="M114.387,132.968a6.088,6.088,0,0,1-2.207-.385,4.772,4.772,0,0,1-2.811-2.769,5.809,5.809,0,0,1-.4-2.176,5.73,5.73,0,0,1,.4-2.165,4.827,4.827,0,0,1,1.114-1.676,5.141,5.141,0,0,1,1.728-1.093,6.031,6.031,0,0,1,2.218-.4,5.868,5.868,0,0,1,2.2.4,5.075,5.075,0,0,1,1.7,1.093,4.89,4.89,0,0,1,1.1,1.686,5.809,5.809,0,0,1,.4,2.176,5.729,5.729,0,0,1-.4,2.165,4.793,4.793,0,0,1-2.811,2.758,6.149,6.149,0,0,1-2.228.385m.021-2.311a2.757,2.757,0,0,0,1.124-.229,2.725,2.725,0,0,0,.9-.625,2.921,2.921,0,0,0,.594-.947,3.219,3.219,0,0,0,.219-1.2,3.518,3.518,0,0,0-.208-1.228,2.892,2.892,0,0,0-.583-.968,2.671,2.671,0,0,0-.9-.635,2.977,2.977,0,0,0-2.29,0,2.667,2.667,0,0,0-.9.635,3.066,3.066,0,0,0-.593.958,3.473,3.473,0,0,0,0,2.425,2.909,2.909,0,0,0,.593.958,2.727,2.727,0,0,0,.9.625,2.806,2.806,0,0,0,1.145.229" transform="translate(-65.117 -73.085)" fill="#fff"/>
    <path id="Trazado_423" data-name="Trazado 423" d="M140.941,124.162a2.968,2.968,0,0,1,.926-1.364,2.412,2.412,0,0,1,1.551-.489,1.99,1.99,0,0,1,1.395.458,1.611,1.611,0,0,1,.5,1.249,1.8,1.8,0,0,1-.135.739,1.755,1.755,0,0,1-.312.489,1.237,1.237,0,0,1-.323.26q-.146.073-.167.052a1.657,1.657,0,0,0-.572-.364,2.059,2.059,0,0,0-.76-.135,1.667,1.667,0,0,0-1.572.874,4.975,4.975,0,0,0-.489,2.415v3.039a1.361,1.361,0,0,1-.365,1.093,1.4,1.4,0,0,1-.926.3h-.312a1.5,1.5,0,0,1-.968-.291,1.357,1.357,0,0,1-.364-1.1v-8.619c0-.042.111-.107.333-.2a2.045,2.045,0,0,1,.77-.135,2.4,2.4,0,0,1,.583.073,1.34,1.34,0,0,1,.531.27,1.869,1.869,0,0,1,.427.531,2.292,2.292,0,0,1,.25.854" transform="translate(-82.489 -73.085)" fill="#fff"/>
    <path id="Trazado_424" data-name="Trazado 424" d="M158.258,121.15q-1.229,0-1.228-1.02v-.187q0-1.082,1.228-1.083h.5v-1.291a1.435,1.435,0,0,1,.354-1.072,1.346,1.346,0,0,1,.978-.343h.25a1.18,1.18,0,0,1,1.312,1.415v1.291h1.77a1.3,1.3,0,0,1,.906.26,1.012,1.012,0,0,1,.281.78v.167q0,1.083-1.228,1.083h-1.791v4.33a1.976,1.976,0,0,0,.26,1.124.975.975,0,0,0,.864.375,1.413,1.413,0,0,0,.771-.2,2.146,2.146,0,0,0,.541-.489c.014-.014.059,0,.135.041a.9.9,0,0,1,.239.208,1.665,1.665,0,0,1,.229.365,1.228,1.228,0,0,1,.1.531,1.6,1.6,0,0,1-.718,1.311,3.918,3.918,0,0,1-4.456-.333,3.735,3.735,0,0,1-.8-2.6V121.15Z" transform="translate(-93.832 -69.406)" fill="#fff"/>
    <path id="Trazado_425" data-name="Trazado 425" d="M8.688,52.968a6.291,6.291,0,0,1,2.179-1.53,6.968,6.968,0,0,1,2.775-.545,6.609,6.609,0,0,1,4.2,1.193,7.182,7.182,0,0,1,2.23,3.009c.034.07.268.078.7.026a4.224,4.224,0,0,0,1.375-.441A4.692,4.692,0,0,0,23.5,53.643a2.5,2.5,0,0,0,.622-1.764,4.8,4.8,0,0,0-.6-2.075,7.074,7.074,0,0,0-1.894-2.257,11.094,11.094,0,0,0-3.346-1.789,14.907,14.907,0,0,0-4.953-.726,14.125,14.125,0,0,0-5.342.986,12.968,12.968,0,0,0-4.227,2.723A12.019,12.019,0,0,0,.985,52.917a14.979,14.979,0,0,0,0,10.685,12.279,12.279,0,0,0,6.95,6.95,14.281,14.281,0,0,0,5.395.986,14.488,14.488,0,0,0,4.876-.726,11.484,11.484,0,0,0,3.345-1.789,7.383,7.383,0,0,0,1.945-2.23,4.49,4.49,0,0,0,.622-2.049,2.651,2.651,0,0,0-.622-1.867,4.608,4.608,0,0,0-1.375-1.038,4,4,0,0,0-1.374-.415c-.415-.034-.641-.017-.675.052a7.088,7.088,0,0,1-2.256,3.008,6.623,6.623,0,0,1-4.175,1.193,6.968,6.968,0,0,1-2.775-.545A6.28,6.28,0,0,1,8.688,63.6a7.154,7.154,0,0,1-1.426-2.36,8.369,8.369,0,0,1-.519-2.983A8.165,8.165,0,0,1,7.262,55.3a7.224,7.224,0,0,1,1.426-2.334" transform="translate(0 -26.909)" fill="#0090df"/>
    <path id="Trazado_426" data-name="Trazado 426" d="M146.052,46.227l-4.417,1.628,2.8,3.256q.356-.033.724-.033a6.6,6.6,0,0,1,4.2,1.193,7.178,7.178,0,0,1,2.23,3.008q.051.1.7.026a4.23,4.23,0,0,0,1.374-.441,4.688,4.688,0,0,0,1.349-1.038,2.5,2.5,0,0,0,.623-1.764,4.8,4.8,0,0,0-.6-2.075,7.06,7.06,0,0,0-1.894-2.256,11.089,11.089,0,0,0-3.346-1.789,12.694,12.694,0,0,0-2.8-.6,1.691,1.691,0,0,1-.95.885" transform="translate(-84.633 -27.094)" fill="#0090df"/>
    <path id="Trazado_427" data-name="Trazado 427" d="M138.628,74.2a3.99,3.99,0,0,0-1.374-.415c-.415-.034-.64-.017-.675.052a7.08,7.08,0,0,1-2.256,3.008,6.62,6.62,0,0,1-4.175,1.193,6.975,6.975,0,0,1-2.775-.544,6.285,6.285,0,0,1-2.179-1.53,7.158,7.158,0,0,1-1.426-2.36,8.37,8.37,0,0,1-.519-2.983,9.12,9.12,0,0,1,.077-1.135l-3.3-3.764-2.345,3.959a1.7,1.7,0,0,1-1.119.8l-.053.089c0,.017,0,.033,0,.05a14.122,14.122,0,0,0,.985,5.343,12.278,12.278,0,0,0,6.951,6.95,14.278,14.278,0,0,0,5.394.985,14.487,14.487,0,0,0,4.876-.726,11.5,11.5,0,0,0,3.345-1.789A7.384,7.384,0,0,0,140,79.157a4.485,4.485,0,0,0,.622-2.049A2.649,2.649,0,0,0,140,75.241a4.6,4.6,0,0,0-1.375-1.038" transform="translate(-69.617 -39.274)" fill="#0090df"/>
    <path id="Trazado_428" data-name="Trazado 428" d="M106.69,40.731l-5.065-17.1c-.385-1.3.6-1.973,1.831-1.4l16.1,7.556a.9.9,0,0,1-.07,1.654L116,32.726a.9.9,0,0,0-.369,1.427l3.614,4.2a2.012,2.012,0,0,1-.231,2.854l-.951.8a2.013,2.013,0,0,1-2.808-.215l-3.625-4.133a.9.9,0,0,0-1.446.134l-1.862,3.144a.9.9,0,0,1-1.632-.2" transform="translate(-60.674 -13.16)" fill="#fff"/>
    <path id="Trazado_429" data-name="Trazado 429" d="M97.185,10.392a9.279,9.279,0,0,0-3.107-8.124A9.27,9.27,0,0,0,80.12,14.155a9.3,9.3,0,0,0,8.374,4.355c.928-.06.935-1.513,0-1.452A7.883,7.883,0,0,1,80.519,6.972a7.819,7.819,0,0,1,15.214,3.42c-.114.925,1.339.917,1.452,0" transform="translate(-47.062 0)" fill="#fff"/>
    <path id="Trazado_430" data-name="Trazado 430" d="M99.16,15.09a5.34,5.34,0,1,0-10.012,2.589,5.418,5.418,0,0,0,4.484,2.744c.714.037.712-1.073,0-1.11A4.227,4.227,0,1,1,98.05,15.09a.556.556,0,0,0,1.11,0" transform="translate(-52.882 -5.829)" fill="#fff"/>
    <path id="Trazado_431" data-name="Trazado 431" d="M68.49,20.947a11.565,11.565,0,0,1,.07-1.234,5.235,5.235,0,0,0-.854-.071,5.444,5.444,0,0,0-1.919.312q-.831.311-.83.519V52.424a3.327,3.327,0,0,0,.934,2.749,3.766,3.766,0,0,0,2.386.726h.778a3.494,3.494,0,0,0,2.308-.752,3.392,3.392,0,0,0,.908-2.723V29.385a11.306,11.306,0,0,1-3.779-8.438" transform="translate(-38.814 -11.737)" fill="#0090df"/>
    <path id="Trazado_432" data-name="Trazado 432" d="M93.07,49.824a4.447,4.447,0,0,0-.407,2.055V70.49a3.28,3.28,0,0,0,.934,2.725,3.79,3.79,0,0,0,2.386.72h.778a3.516,3.516,0,0,0,2.308-.745,3.345,3.345,0,0,0,.908-2.7V58.718l-2.518-8.442c-.351.033-.705.054-1.064.054a11.239,11.239,0,0,1-3.324-.506" transform="translate(-55.37 -29.772)" fill="#0090df"/>
  </g>
</svg>
