<svg xmlns="http://www.w3.org/2000/svg" xmlns:xlink="http://www.w3.org/1999/xlink" width="178.983" height="56" viewBox="0 0 178.983 56">
  <defs>
    <clipPath id="clip-path">
      <rect id="Rectángulo_132" data-name="Rectángulo 132" width="178.983" height="56" fill="none"/>
    </clipPath>
  </defs>
  <g id="Grupo_73" data-name="Grupo 73" transform="translate(0 0)">
    <g id="Grupo_45" data-name="Grupo 45" transform="translate(0 0)" clip-path="url(#clip-path)">
      <path id="Trazado_378" data-name="Trazado 378" d="M14.262,37.611a6.1,6.1,0,0,0,3.024-1.73,4.457,4.457,0,0,0,1.031-3.059,5.037,5.037,0,0,0-2.01-4.317,9.759,9.759,0,0,0-5.855-1.486H2.692a2.6,2.6,0,0,0-1.975.751A2.943,2.943,0,0,0,0,29.885V46.769a2.941,2.941,0,0,0,.717,2.115,2.6,2.6,0,0,0,1.975.752h7.341q4.788,0,6.956-1.573A5.6,5.6,0,0,0,19.156,43.2a5.437,5.437,0,0,0-1.188-3.531,6.51,6.51,0,0,0-3.706-2.062M5.069,30.864H9.4a4.416,4.416,0,0,1,2.744.681A2.5,2.5,0,0,1,13,33.625a2.643,2.643,0,0,1-.909,2.133,4.073,4.073,0,0,1-2.691.769H5.069Zm7.865,14.209a5.534,5.534,0,0,1-3.251.717H5.069V39.813H9.718a5.6,5.6,0,0,1,3.181.7,2.523,2.523,0,0,1,.979,2.2,2.775,2.775,0,0,1-.944,2.359" transform="translate(0 -11.79)" fill="#fff"/>
      <path id="Trazado_379" data-name="Trazado 379" d="M43.768,36.2a14.005,14.005,0,0,0-3.409.367,8.588,8.588,0,0,0-2.411.962,4.321,4.321,0,0,0-1.433,1.346,2.888,2.888,0,0,0-.472,1.555,1.679,1.679,0,0,0,.489,1.294,2.681,2.681,0,0,0,1.1.629,4.617,4.617,0,0,0,1.1.193c.326.012.489.006.489-.017a5.379,5.379,0,0,1,1.468-1.818,4.241,4.241,0,0,1,2.761-.8q3.5,0,3.5,3.391h-.559q-5.63.07-8.3,1.451a4.9,4.9,0,0,0-1.154,7.918,6.086,6.086,0,0,0,4.211,1.363,7.639,7.639,0,0,0,3.461-.769,6.331,6.331,0,0,0,2.447-2.1,3.214,3.214,0,0,0,.978,2.08,2.889,2.889,0,0,0,1.923.646,4.032,4.032,0,0,0,1.277-.192q.576-.192.576-.367v-10.1a6.673,6.673,0,0,0-1.992-5.243Q47.821,36.2,43.768,36.2m3.181,10.766a3.626,3.626,0,0,1-1.154,2.762,4.214,4.214,0,0,1-3.006,1.083,3.072,3.072,0,0,1-1.941-.559,1.807,1.807,0,0,1-.716-1.5,2.114,2.114,0,0,1,1.486-2.027,12.684,12.684,0,0,1,4.421-.7l.91-.034Z" transform="translate(-15.454 -15.796)" fill="#fff"/>
      <path id="Trazado_380" data-name="Trazado 380" d="M81.12,37.164a4.376,4.376,0,0,0-.874-.419,2.991,2.991,0,0,0-1.014-.175,2.669,2.669,0,0,0-1.538.507,3.627,3.627,0,0,0-1.188,1.975L73.22,48.769l-3.705-9.752a3.816,3.816,0,0,0-1.189-1.957,2.68,2.68,0,0,0-1.573-.49,2.987,2.987,0,0,0-1.066.193,5.1,5.1,0,0,0-.874.419,2.479,2.479,0,0,0-.577.472c-.139.163-.2.28-.174.349l5.872,13.633a1.749,1.749,0,0,0,.629.769,2.314,2.314,0,0,0,.979.314L68.711,59.15q-.036.1.157.315a3.093,3.093,0,0,0,.56.454,3.827,3.827,0,0,0,.874.419,3.154,3.154,0,0,0,1.031.175,2.593,2.593,0,0,0,1.521-.507A4.2,4.2,0,0,0,74.129,58.1l7.76-20.17c.024-.07-.035-.175-.174-.314a3.557,3.557,0,0,0-.595-.454" transform="translate(-27.953 -15.958)" fill="#fff"/>
      <path id="Trazado_381" data-name="Trazado 381" d="M113.271,38.61a7.222,7.222,0,0,0-2.5-1.783,7.954,7.954,0,0,0-3.2-.629,6.307,6.307,0,0,0-3.356.856,6.4,6.4,0,0,0-2.237,2.324,4.165,4.165,0,0,0-.4-1.468,3,3,0,0,0-.716-.909,2.275,2.275,0,0,0-.909-.472,4.015,4.015,0,0,0-.978-.122,3.424,3.424,0,0,0-1.294.227q-.56.227-.56.332V58.08a2.336,2.336,0,0,0,.612,1.87,2.467,2.467,0,0,0,1.625.507h.524a2.307,2.307,0,0,0,1.556-.524,2.345,2.345,0,0,0,.612-1.853v-7.1A6.053,6.053,0,0,0,107.5,54.1a7.814,7.814,0,0,0,3.252-.664,7.465,7.465,0,0,0,2.517-1.836,8.221,8.221,0,0,0,1.625-2.831,12.014,12.014,0,0,0,0-7.358,8.067,8.067,0,0,0-1.625-2.8M109.513,48.8a4.036,4.036,0,0,1-3.2,1.381,4.649,4.649,0,0,1-1.66-.3,4.055,4.055,0,0,1-1.363-.839,3.928,3.928,0,0,1-.909-1.294,4.058,4.058,0,0,1-.331-1.66V42.91a4.721,4.721,0,0,1,1.642-2.01,4.551,4.551,0,0,1,2.657-.751,4,4,0,0,1,3.164,1.381,5.355,5.355,0,0,1,1.206,3.653,5.3,5.3,0,0,1-1.206,3.618" transform="translate(-42.382 -15.796)" fill="#fff"/>
      <path id="Trazado_382" data-name="Trazado 382" d="M147.111,38.7a8.513,8.513,0,0,0-2.849-1.835,9.855,9.855,0,0,0-3.688-.664,10.125,10.125,0,0,0-3.723.664,8.628,8.628,0,0,0-2.9,1.835,8.105,8.105,0,0,0-1.87,2.814,9.621,9.621,0,0,0-.664,3.635,9.758,9.758,0,0,0,.664,3.653,8.015,8.015,0,0,0,4.719,4.649,10.224,10.224,0,0,0,3.705.647,10.33,10.33,0,0,0,3.741-.647,8.048,8.048,0,0,0,4.719-4.631,9.621,9.621,0,0,0,.664-3.635,9.756,9.756,0,0,0-.664-3.653,8.2,8.2,0,0,0-1.853-2.832m-2.185,8.494a4.913,4.913,0,0,1-1,1.591,4.635,4.635,0,0,1-3.391,1.433,4.71,4.71,0,0,1-1.923-.384,4.57,4.57,0,0,1-1.5-1.048,4.868,4.868,0,0,1-1-1.608,5.832,5.832,0,0,1,0-4.072,5.126,5.126,0,0,1,1-1.609,4.462,4.462,0,0,1,1.5-1.066,5,5,0,0,1,3.845,0,4.476,4.476,0,0,1,1.5,1.066,4.848,4.848,0,0,1,.978,1.626,5.9,5.9,0,0,1,.35,2.062,5.407,5.407,0,0,1-.367,2.01" transform="translate(-57.348 -15.796)" fill="#fff"/>
      <path id="Trazado_383" data-name="Trazado 383" d="M177.534,38.4c0-.008,0-.014,0-.022a2.519,2.519,0,0,0-.77-1.411,3.34,3.34,0,0,0-2.342-.769,4.051,4.051,0,0,0-2.6.821,4.983,4.983,0,0,0-1.556,2.289,3.849,3.849,0,0,0-.419-1.433,3.153,3.153,0,0,0-.716-.892,2.247,2.247,0,0,0-.892-.454,4.015,4.015,0,0,0-.978-.122,3.424,3.424,0,0,0-1.293.227q-.56.227-.56.332V51.439a2.277,2.277,0,0,0,.612,1.852,2.521,2.521,0,0,0,1.625.49h.524a2.353,2.353,0,0,0,1.556-.507,2.284,2.284,0,0,0,.612-1.835v-5.1a8.356,8.356,0,0,1,.821-4.055,2.8,2.8,0,0,1,2.639-1.468,3.45,3.45,0,0,1,1.276.228,2.781,2.781,0,0,1,.962.612q.035.036.28-.087a2.057,2.057,0,0,0,.542-.437,2.949,2.949,0,0,0,.525-.821,2.894,2.894,0,0,0,.22-1.077,2.2,2.2,0,0,1-.063-.514Z" transform="translate(-72.179 -15.796)" fill="#fff"/>
      <path id="Trazado_384" data-name="Trazado 384" d="M199.819,33.641a2.556,2.556,0,0,0-1.3-.28h-2.971V31.194a1.981,1.981,0,0,0-2.2-2.377h-.419a2.259,2.259,0,0,0-1.643.577,2.412,2.412,0,0,0-.594,1.8v2.168h-.839q-2.049,0-2.061,1.8a3.488,3.488,0,0,1,.069.686c0,.057,0,.109-.007.165.19.8.851,1.2,2,1.2h.839v7.83a6.27,6.27,0,0,0,1.345,4.37,6.58,6.58,0,0,0,7.481.559,2.687,2.687,0,0,0,1.206-2.2,2.069,2.069,0,0,0-.174-.892,2.8,2.8,0,0,0-.385-.612,1.512,1.512,0,0,0-.4-.349c-.128-.07-.2-.093-.227-.07a3.583,3.583,0,0,1-.909.821,2.37,2.37,0,0,1-1.294.332,1.64,1.64,0,0,1-1.451-.629,3.322,3.322,0,0,1-.436-1.888V37.206h3.006c.113,0,.214-.011.317-.019a13.386,13.386,0,0,1,.82-3.051c.069-.171.154-.329.229-.5" transform="translate(-81.949 -12.575)" fill="#fff"/>
      <path id="Trazado_385" data-name="Trazado 385" d="M186.926,40.066c0,.008,0,.014,0,.022V40.4a2.2,2.2,0,0,0,.064.514c0-.055.006-.107.006-.165a3.542,3.542,0,0,0-.068-.686" transform="translate(-81.57 -17.484)" fill="#fff"/>
      <path id="Trazado_386" data-name="Trazado 386" d="M115.438,89.015a6.683,6.683,0,0,1-2.588-.488,5.934,5.934,0,0,1-2.021-1.364,6.115,6.115,0,0,1-1.314-2.1,7.955,7.955,0,0,1,.01-5.405,6.353,6.353,0,0,1,1.324-2.12,5.97,5.97,0,0,1,2.031-1.384,7.072,7.072,0,0,1,5.186-.01,5.956,5.956,0,0,1,2.02,1.364,6.131,6.131,0,0,1,1.314,2.11,8.077,8.077,0,0,1,0,5.415,6.143,6.143,0,0,1-1.324,2.12,5.958,5.958,0,0,1-2.041,1.374,6.758,6.758,0,0,1-2.6.488m.039-1.175a4.987,4.987,0,0,0,2.01-.4,4.629,4.629,0,0,0,1.583-1.125,5.141,5.141,0,0,0,1.035-1.732,6.406,6.406,0,0,0,.369-2.22,6.286,6.286,0,0,0-.378-2.209,5.383,5.383,0,0,0-1.045-1.752,4.778,4.778,0,0,0-1.593-1.155,5.124,5.124,0,0,0-4.032-.01,4.747,4.747,0,0,0-1.583,1.135,5.155,5.155,0,0,0-1.035,1.731,6.422,6.422,0,0,0-.368,2.22,6.261,6.261,0,0,0,.378,2.22,5.381,5.381,0,0,0,1.046,1.742,4.645,4.645,0,0,0,1.593,1.145,4.946,4.946,0,0,0,2.02.408" transform="translate(-47.586 -33.015)" fill="#fff"/>
      <path id="Trazado_387" data-name="Trazado 387" d="M134.531,79.992a.693.693,0,0,1-.488-.129.528.528,0,0,1-.129-.389v-.119a.529.529,0,0,1,.129-.388.7.7,0,0,1,.488-.129h1.394v-.876a3.87,3.87,0,0,1,.706-2.5,2.529,2.529,0,0,1,2.08-.866,2.435,2.435,0,0,1,1.424.338.961.961,0,0,1,.468.777.654.654,0,0,1-.169.5q-.169.159-.209.119a2.048,2.048,0,0,0-.627-.4,2.19,2.19,0,0,0-.887-.179,1.308,1.308,0,0,0-1.175.537,3.217,3.217,0,0,0-.358,1.733v.816h1.911a.7.7,0,0,1,.488.129.529.529,0,0,1,.13.388v.119a.528.528,0,0,1-.13.389.693.693,0,0,1-.488.129H137.2v7.784a.628.628,0,0,1-.149.488.6.6,0,0,1-.408.13H136.5a.64.64,0,0,1-.418-.13.6.6,0,0,1-.16-.488V79.992Z" transform="translate(-58.438 -32.553)" fill="#fff"/>
      <path id="Trazado_388" data-name="Trazado 388" d="M148.242,76.592a.748.748,0,0,1-.836-.856.766.766,0,0,1,.876-.856.748.748,0,0,1,.836.856.766.766,0,0,1-.876.856m-.477,11.8a.6.6,0,0,1-.159-.488V79.5a.6.6,0,0,1,.159-.488.644.644,0,0,1,.418-.13h.139a.641.641,0,0,1,.418.13.6.6,0,0,1,.159.488v8.4a.6.6,0,0,1-.159.488.641.641,0,0,1-.418.13h-.139a.644.644,0,0,1-.418-.13" transform="translate(-64.325 -32.676)" fill="#fff"/>
      <path id="Trazado_389" data-name="Trazado 389" d="M158.712,91.651a4.9,4.9,0,0,1-1.93-.379,4.682,4.682,0,0,1-2.579-2.627,5.284,5.284,0,0,1-.368-1.991,5.206,5.206,0,0,1,.368-1.981,4.78,4.78,0,0,1,1.025-1.573,4.629,4.629,0,0,1,1.553-1.035,5.032,5.032,0,0,1,1.93-.368,5.112,5.112,0,0,1,1.8.289,4.487,4.487,0,0,1,1.274.707,3.107,3.107,0,0,1,.756.866,1.657,1.657,0,0,1,.249.767.47.47,0,0,1-.13.349.933.933,0,0,1-.288.2.9.9,0,0,1-.289.079c-.086.007-.136,0-.149-.01a3.8,3.8,0,0,0-.458-.816,3.174,3.174,0,0,0-.667-.667,2.969,2.969,0,0,0-.905-.448,4.079,4.079,0,0,0-1.195-.159,3.58,3.58,0,0,0-1.414.279,3.32,3.32,0,0,0-1.135.786,3.662,3.662,0,0,0-.746,1.205,4.5,4.5,0,0,0,0,3.066,3.778,3.778,0,0,0,.746,1.215,3.393,3.393,0,0,0,1.125.806,3.448,3.448,0,0,0,1.423.289,4.059,4.059,0,0,0,1.195-.16,2.956,2.956,0,0,0,.905-.448,3.172,3.172,0,0,0,.667-.667,3.829,3.829,0,0,0,.458-.816c.012-.027.063-.033.149-.02a1.21,1.21,0,0,1,.289.09.954.954,0,0,1,.288.2.47.47,0,0,1,.13.348,1.652,1.652,0,0,1-.249.767,3.1,3.1,0,0,1-.756.866,4.46,4.46,0,0,1-1.274.706,5.1,5.1,0,0,1-1.8.289" transform="translate(-67.131 -35.651)" fill="#fff"/>
      <path id="Trazado_390" data-name="Trazado 390" d="M173.92,76.592a.748.748,0,0,1-.836-.856.766.766,0,0,1,.876-.856.748.748,0,0,1,.836.856.766.766,0,0,1-.876.856m-.477,11.8a.6.6,0,0,1-.159-.488V79.5a.6.6,0,0,1,.159-.488.644.644,0,0,1,.418-.13H174a.641.641,0,0,1,.418.13.6.6,0,0,1,.16.488v8.4a.6.6,0,0,1-.16.488.641.641,0,0,1-.418.13h-.139a.644.644,0,0,1-.418-.13" transform="translate(-75.531 -32.676)" fill="#fff"/>
      <path id="Trazado_391" data-name="Trazado 391" d="M183.221,82.175a3.7,3.7,0,0,1,1.921-.477,4.186,4.186,0,0,1,1.643.3,3.12,3.12,0,0,1,1.175.846,3.667,3.667,0,0,1,.706,1.324,5.794,5.794,0,0,1,.24,1.712v5a.607.607,0,0,1-.16.488.644.644,0,0,1-.418.13h-.139a.644.644,0,0,1-.418-.13.607.607,0,0,1-.159-.488V85.958a3.413,3.413,0,0,0-.667-2.239,2.305,2.305,0,0,0-1.881-.807,3.247,3.247,0,0,0-1.911.557,3.589,3.589,0,0,0-1.215,1.453v5.952a.607.607,0,0,1-.159.488.646.646,0,0,1-.418.13h-.14a.641.641,0,0,1-.418-.13.6.6,0,0,1-.16-.488V82c0-.026.043-.056.13-.09a.866.866,0,0,1,.308-.05.82.82,0,0,1,.587.239,1.453,1.453,0,0,1,.249,1.015v.3a3.937,3.937,0,0,1,1.3-1.234" transform="translate(-78.829 -35.651)" fill="#fff"/>
      <path id="Trazado_392" data-name="Trazado 392" d="M205.623,85.42a2.461,2.461,0,0,0-.687-1.881,2.781,2.781,0,0,0-1.981-.647,3.257,3.257,0,0,0-1.891.508,3.553,3.553,0,0,0-1.135,1.244,1.2,1.2,0,0,1-.368-.11.783.783,0,0,1-.249-.229.675.675,0,0,1-.119-.418,1.19,1.19,0,0,1,.249-.627,2.915,2.915,0,0,1,.736-.717,4.7,4.7,0,0,1,1.215-.6,5.11,5.11,0,0,1,1.662-.249,3.913,3.913,0,0,1,2.827.976A3.576,3.576,0,0,1,206.9,85.38v5.972c0,.028-.043.057-.129.09a.849.849,0,0,1-.309.05.786.786,0,0,1-.577-.238,1.5,1.5,0,0,1-.239-1.016v-.358a3.748,3.748,0,0,1-1.483,1.294,4.581,4.581,0,0,1-2.061.458,3.613,3.613,0,0,1-2.409-.727,2.4,2.4,0,0,1-.856-1.921,2.491,2.491,0,0,1,1.643-2.409,13.5,13.5,0,0,1,4.947-.816h.2Zm-3.4,5.136a4.026,4.026,0,0,0,1.354-.219,3.4,3.4,0,0,0,1.075-.608,2.809,2.809,0,0,0,.716-.915,2.6,2.6,0,0,0,.259-1.165v-.876l-.557.02a12.151,12.151,0,0,0-3.683.578,1.663,1.663,0,0,0-1.234,1.613,1.377,1.377,0,0,0,.547,1.144,2.413,2.413,0,0,0,1.523.428" transform="translate(-86.768 -35.651)" fill="#fff"/>
      <path id="Trazado_393" data-name="Trazado 393" d="M231.7,76.556a.957.957,0,0,1,.348-.488.8.8,0,0,1,.428-.13,1,1,0,0,1,.547.159c.166.107.236.187.209.24L228.51,88.521a.775.775,0,0,1-.279.379,1.661,1.661,0,0,1-1.234,0,.775.775,0,0,1-.279-.379L222,76.337c-.027-.053.043-.132.209-.24a1.031,1.031,0,0,1,.568-.159.886.886,0,0,1,.458.13.93.93,0,0,1,.358.488l4.042,10.909Z" transform="translate(-96.875 -33.138)" fill="#fff"/>
      <path id="Trazado_394" data-name="Trazado 394" d="M245.587,76.592a.748.748,0,0,1-.836-.856.766.766,0,0,1,.876-.856.748.748,0,0,1,.836.856.766.766,0,0,1-.876.856m-.477,11.8a.6.6,0,0,1-.159-.488V79.5a.6.6,0,0,1,.159-.488.644.644,0,0,1,.418-.13h.139a.641.641,0,0,1,.418.13.6.6,0,0,1,.159.488v8.4a.6.6,0,0,1-.159.488.641.641,0,0,1-.418.13h-.139a.644.644,0,0,1-.418-.13" transform="translate(-106.805 -32.676)" fill="#fff"/>
      <path id="Trazado_395" data-name="Trazado 395" d="M256.092,81.7a1.715,1.715,0,0,1,1.016.259.836.836,0,0,1,.358.716.787.787,0,0,1-.16.538c-.106.119-.172.166-.2.139a1.91,1.91,0,0,0-.488-.289,1.782,1.782,0,0,0-.667-.109,1.826,1.826,0,0,0-1.085.318,2.327,2.327,0,0,0-.727.876,4.71,4.71,0,0,0-.408,1.324,10.144,10.144,0,0,0-.129,1.682v3.723a.606.606,0,0,1-.159.488.646.646,0,0,1-.418.13h-.14a.644.644,0,0,1-.418-.13.6.6,0,0,1-.159-.488V82c0-.026.043-.056.13-.09a.867.867,0,0,1,.308-.05.822.822,0,0,1,.587.239,1.458,1.458,0,0,1,.249,1.016v.577a2.491,2.491,0,0,1,2.508-1.991" transform="translate(-110.104 -35.651)" fill="#fff"/>
      <path id="Trazado_396" data-name="Trazado 396" d="M263.982,81.518a.693.693,0,0,1-.488-.129.528.528,0,0,1-.129-.389v-.119a.529.529,0,0,1,.129-.388.7.7,0,0,1,.488-.129h.876V78.711a.605.605,0,0,1,.159-.488.647.647,0,0,1,.418-.129h.139a.607.607,0,0,1,.409.129.632.632,0,0,1,.149.488v1.653h2.528a.7.7,0,0,1,.488.129.529.529,0,0,1,.129.388V81a.528.528,0,0,1-.129.389.7.7,0,0,1-.488.129h-2.528v5.395a3.02,3.02,0,0,0,.309,1.553,1.193,1.193,0,0,0,1.1.5,1.8,1.8,0,0,0,.856-.189,1.965,1.965,0,0,0,.617-.507c.027-.026.107.01.239.109a.621.621,0,0,1,.2.528,1.053,1.053,0,0,1-.5.787,2.332,2.332,0,0,1-1.454.388,2.462,2.462,0,0,1-2.021-.767,3.5,3.5,0,0,1-.627-2.26V81.518Z" transform="translate(-114.928 -34.079)" fill="#fff"/>
      <path id="Trazado_397" data-name="Trazado 397" d="M282.718,91.3a3.7,3.7,0,0,1-1.921.477,4.181,4.181,0,0,1-1.642-.3,3.1,3.1,0,0,1-1.175-.845,3.662,3.662,0,0,1-.707-1.325,5.787,5.787,0,0,1-.239-1.712v-5a.605.605,0,0,1,.159-.488.641.641,0,0,1,.418-.13h.139a.641.641,0,0,1,.418.13.605.605,0,0,1,.16.488v4.918a3.348,3.348,0,0,0,.686,2.239,2.434,2.434,0,0,0,1.961.806A3.07,3.07,0,0,0,282.8,90,3.626,3.626,0,0,0,284,88.549V82.6a.6.6,0,0,1,.159-.488.641.641,0,0,1,.418-.13h.139a.638.638,0,0,1,.418.13.6.6,0,0,1,.159.488v8.879c0,.027-.043.057-.129.09a.858.858,0,0,1-.308.05.818.818,0,0,1-.587-.239,1.451,1.451,0,0,1-.249-1.015v-.3a3.941,3.941,0,0,1-1.3,1.235" transform="translate(-120.893 -35.774)" fill="#fff"/>
      <path id="Trazado_398" data-name="Trazado 398" d="M302.154,85.42a2.461,2.461,0,0,0-.687-1.881,2.781,2.781,0,0,0-1.981-.647,3.256,3.256,0,0,0-1.89.508,3.553,3.553,0,0,0-1.135,1.244,1.2,1.2,0,0,1-.369-.11.776.776,0,0,1-.249-.229.675.675,0,0,1-.12-.418,1.187,1.187,0,0,1,.25-.627,2.9,2.9,0,0,1,.736-.717,4.692,4.692,0,0,1,1.215-.6,5.1,5.1,0,0,1,1.662-.249,3.915,3.915,0,0,1,2.828.976,3.578,3.578,0,0,1,1.015,2.708v5.972c0,.028-.043.057-.13.09a.847.847,0,0,1-.309.05.784.784,0,0,1-.577-.238,1.5,1.5,0,0,1-.24-1.016v-.358a3.744,3.744,0,0,1-1.483,1.294,4.579,4.579,0,0,1-2.06.458,3.614,3.614,0,0,1-2.409-.727,2.4,2.4,0,0,1-.856-1.921,2.491,2.491,0,0,1,1.642-2.409,13.506,13.506,0,0,1,4.947-.816h.2Zm-3.4,5.136a4.023,4.023,0,0,0,1.353-.219,3.406,3.406,0,0,0,1.075-.608,2.817,2.817,0,0,0,.716-.915,2.6,2.6,0,0,0,.259-1.165v-.876l-.557.02a12.148,12.148,0,0,0-3.683.578,1.663,1.663,0,0,0-1.234,1.613,1.378,1.378,0,0,0,.547,1.144,2.414,2.414,0,0,0,1.523.428" transform="translate(-128.892 -35.651)" fill="#fff"/>
      <path id="Trazado_399" data-name="Trazado 399" d="M314.6,88.387a.6.6,0,0,1-.159-.488V75.019c0-.026.043-.056.13-.09a.87.87,0,0,1,.309-.05.856.856,0,0,1,.6.239,1.418,1.418,0,0,1,.258,1.015V87.9a.6.6,0,0,1-.16.488.641.641,0,0,1-.418.13h-.139a.644.644,0,0,1-.418-.13" transform="translate(-137.215 -32.676)" fill="#fff"/>
      <path id="Trazado_400" data-name="Trazado 400" d="M217.019,34.365a5.392,5.392,0,0,1,1.867-1.312,5.975,5.975,0,0,1,2.378-.467,5.664,5.664,0,0,1,3.6,1.023,6.155,6.155,0,0,1,1.912,2.579c.029.06.229.067.6.023a3.622,3.622,0,0,0,1.178-.378,4.02,4.02,0,0,0,1.156-.889,2.139,2.139,0,0,0,.534-1.512,4.113,4.113,0,0,0-.511-1.778,6.07,6.07,0,0,0-1.623-1.934,9.517,9.517,0,0,0-2.868-1.534A12.773,12.773,0,0,0,221,27.562a12.109,12.109,0,0,0-4.579.845,11.118,11.118,0,0,0-3.624,2.334,10.3,10.3,0,0,0-2.379,3.579,12.833,12.833,0,0,0,0,9.159,10.525,10.525,0,0,0,5.958,5.958,12.241,12.241,0,0,0,4.624.844,12.424,12.424,0,0,0,4.179-.622,9.86,9.86,0,0,0,2.868-1.534,6.337,6.337,0,0,0,1.667-1.912,3.847,3.847,0,0,0,.534-1.756,2.27,2.27,0,0,0-.534-1.6,3.943,3.943,0,0,0-1.178-.889,3.421,3.421,0,0,0-1.178-.356c-.356-.029-.55-.015-.578.045a6.073,6.073,0,0,1-1.934,2.579,5.677,5.677,0,0,1-3.579,1.022,5.975,5.975,0,0,1-2.378-.467,5.377,5.377,0,0,1-1.867-1.312,6.13,6.13,0,0,1-1.222-2.023,7.182,7.182,0,0,1-.445-2.557,7,7,0,0,1,.445-2.534,6.192,6.192,0,0,1,1.222-2" transform="translate(-91.453 -12.027)" fill="#0090df"/>
      <path id="Trazado_401" data-name="Trazado 401" d="M300.047,28.511l-3.786,1.4,2.4,2.791q.3-.028.621-.028a5.663,5.663,0,0,1,3.6,1.022,6.156,6.156,0,0,1,1.912,2.579c.029.059.229.066.6.022a3.608,3.608,0,0,0,1.178-.378,4.018,4.018,0,0,0,1.156-.889,2.141,2.141,0,0,0,.534-1.512,4.116,4.116,0,0,0-.511-1.778,6.049,6.049,0,0,0-1.623-1.934,9.505,9.505,0,0,0-2.868-1.534,10.885,10.885,0,0,0-2.4-.516,1.451,1.451,0,0,1-.814.759" transform="translate(-129.283 -12.11)" fill="#0090df"/>
      <path id="Trazado_402" data-name="Trazado 402" d="M299.842,47.495a3.421,3.421,0,0,0-1.178-.356c-.356-.029-.549-.015-.578.045a6.076,6.076,0,0,1-1.934,2.579,5.673,5.673,0,0,1-3.579,1.023,5.986,5.986,0,0,1-2.379-.467,5.391,5.391,0,0,1-1.867-1.312,6.13,6.13,0,0,1-1.222-2.023,7.179,7.179,0,0,1-.445-2.557,7.776,7.776,0,0,1,.066-.972l-2.83-3.227-2.01,3.394a1.455,1.455,0,0,1-.959.685l-.046.077c0,.015,0,.029,0,.043a12.1,12.1,0,0,0,.845,4.579,10.522,10.522,0,0,0,5.957,5.958,12.244,12.244,0,0,0,4.624.845,12.424,12.424,0,0,0,4.18-.623,9.849,9.849,0,0,0,2.867-1.534,6.325,6.325,0,0,0,1.668-1.912,3.846,3.846,0,0,0,.533-1.756,2.27,2.27,0,0,0-.533-1.6,3.945,3.945,0,0,0-1.179-.889" transform="translate(-122.571 -17.555)" fill="#0090df"/>
      <path id="Trazado_403" data-name="Trazado 403" d="M276.134,29.515l-4.342-14.66c-.33-1.116.516-1.691,1.57-1.2l13.8,6.477a.769.769,0,0,1-.06,1.418l-2.989,1.1a.769.769,0,0,0-.317,1.223l3.1,3.6a1.725,1.725,0,0,1-.2,2.447l-.816.684a1.725,1.725,0,0,1-2.407-.184l-3.107-3.542a.769.769,0,0,0-1.239.116l-1.6,2.694a.769.769,0,0,1-1.4-.174" transform="translate(-118.574 -5.882)" fill="#fff"/>
      <path id="Trazado_404" data-name="Trazado 404" d="M273.57,8.908a7.954,7.954,0,0,0-2.663-6.964,7.946,7.946,0,0,0-11.965,10.189,7.971,7.971,0,0,0,7.178,3.733c.8-.052.8-1.3,0-1.244a6.757,6.757,0,0,1-6.836-8.645,6.7,6.7,0,0,1,13.041,2.932c-.1.793,1.148.786,1.244,0" transform="translate(-112.489 0)" fill="#fff"/>
      <path id="Trazado_405" data-name="Trazado 405" d="M272.877,10.544a4.578,4.578,0,1,0-8.582,2.219,4.644,4.644,0,0,0,3.843,2.351c.612.033.61-.919,0-.951a3.624,3.624,0,1,1,3.786-3.619.476.476,0,0,0,.952,0" transform="translate(-115.091 -2.605)" fill="#fff"/>
      <path id="Trazado_406" data-name="Trazado 406" d="M252.357,13.141a9.92,9.92,0,0,1,.06-1.057,4.488,4.488,0,0,0-.732-.061,4.663,4.663,0,0,0-1.645.267q-.713.266-.712.445V40.121a2.852,2.852,0,0,0,.8,2.356,3.231,3.231,0,0,0,2.045.623h.667a3,3,0,0,0,1.978-.645,2.909,2.909,0,0,0,.778-2.335V20.374a9.691,9.691,0,0,1-3.24-7.233" transform="translate(-108.802 -5.246)" fill="#0090df"/>
      <path id="Trazado_407" data-name="Trazado 407" d="M266.636,30.495a3.808,3.808,0,0,0-.349,1.762V48.209a2.814,2.814,0,0,0,.8,2.336,3.251,3.251,0,0,0,2.045.617h.667a3.011,3.011,0,0,0,1.978-.639,2.865,2.865,0,0,0,.778-2.313V38.118L270.4,30.883c-.3.028-.6.046-.912.046a9.631,9.631,0,0,1-2.85-.434" transform="translate(-116.203 -13.307)" fill="#0090df"/>
    </g>
  </g>
</svg>
