<svg xmlns="http://www.w3.org/2000/svg" xmlns:xlink="http://www.w3.org/1999/xlink" width="80" height="50.28" viewBox="0 0 80 50.28">
  <defs>
    <clipPath id="clip-path">
      <rect id="Rectángulo_153" data-name="Rectángulo 153" width="80" height="50.28" fill="none"/>
    </clipPath>
  </defs>
  <g id="Grupo_64" data-name="Grupo 64" transform="translate(0 0)">
    <g id="Grupo_64-2" data-name="Grupo 64" transform="translate(0 0)" clip-path="url(#clip-path)">
      <path id="Trazado_455" data-name="Trazado 455" d="M9.788,53.972a7.088,7.088,0,0,1,2.454-1.724,7.851,7.851,0,0,1,3.126-.614A7.446,7.446,0,0,1,20.1,52.979a8.092,8.092,0,0,1,2.512,3.39c.038.078.3.088.789.029a4.759,4.759,0,0,0,1.549-.5,5.286,5.286,0,0,0,1.519-1.169,2.813,2.813,0,0,0,.7-1.987,5.409,5.409,0,0,0-.672-2.337,7.969,7.969,0,0,0-2.134-2.542A12.5,12.5,0,0,0,20.6,45.849a16.8,16.8,0,0,0-5.581-.818A15.914,15.914,0,0,0,9,46.142,14.61,14.61,0,0,0,4.237,49.21a13.541,13.541,0,0,0-3.127,4.7,16.875,16.875,0,0,0,0,12.038,13.834,13.834,0,0,0,7.831,7.831,16.09,16.09,0,0,0,6.078,1.11,16.323,16.323,0,0,0,5.494-.818,12.938,12.938,0,0,0,3.769-2.016,8.318,8.318,0,0,0,2.192-2.513,5.059,5.059,0,0,0,.7-2.308,2.987,2.987,0,0,0-.7-2.1,5.192,5.192,0,0,0-1.549-1.169,4.508,4.508,0,0,0-1.548-.467c-.467-.038-.722-.019-.76.059a7.986,7.986,0,0,1-2.542,3.389,7.462,7.462,0,0,1-4.7,1.344,7.851,7.851,0,0,1-3.126-.613,7.076,7.076,0,0,1-2.454-1.724,8.06,8.06,0,0,1-1.607-2.659,9.428,9.428,0,0,1-.585-3.36,9.2,9.2,0,0,1,.585-3.33,8.139,8.139,0,0,1,1.607-2.63" transform="translate(0 -24.613)" fill="#0090df"/>
      <path id="Trazado_456" data-name="Trazado 456" d="M146.611,46.34l-4.976,1.834,3.159,3.669q.4-.037.816-.038a7.443,7.443,0,0,1,4.734,1.344,8.092,8.092,0,0,1,2.512,3.39c.038.078.3.087.789.029a4.744,4.744,0,0,0,1.548-.5,5.281,5.281,0,0,0,1.519-1.168,2.814,2.814,0,0,0,.7-1.987,5.406,5.406,0,0,0-.672-2.337,7.956,7.956,0,0,0-2.133-2.542,12.5,12.5,0,0,0-3.769-2.016,14.277,14.277,0,0,0-3.158-.678,1.909,1.909,0,0,1-1.071,1" transform="translate(-77.415 -24.783)" fill="#0090df"/>
      <path id="Trazado_457" data-name="Trazado 457" d="M141.43,75.277a4.5,4.5,0,0,0-1.548-.467c-.467-.038-.721-.019-.76.058a7.977,7.977,0,0,1-2.542,3.389,7.458,7.458,0,0,1-4.7,1.344,7.858,7.858,0,0,1-3.126-.613,7.082,7.082,0,0,1-2.454-1.724,8.065,8.065,0,0,1-1.607-2.659,9.43,9.43,0,0,1-.584-3.36,10.275,10.275,0,0,1,.087-1.278l-3.719-4.24-2.642,4.461a1.915,1.915,0,0,1-1.261.9l-.06.1c0,.019,0,.037,0,.057a15.91,15.91,0,0,0,1.11,6.02,13.833,13.833,0,0,0,7.831,7.831,16.086,16.086,0,0,0,6.077,1.11,16.322,16.322,0,0,0,5.494-.818,12.96,12.96,0,0,0,3.769-2.016,8.318,8.318,0,0,0,2.192-2.513,5.053,5.053,0,0,0,.7-2.308,2.985,2.985,0,0,0-.7-2.1,5.184,5.184,0,0,0-1.549-1.169" transform="translate(-63.68 -35.924)" fill="#0090df"/>
      <path id="Trazado_458" data-name="Trazado 458" d="M107.342,43.1l-5.707-19.268c-.434-1.467.677-2.223,2.063-1.575l18.141,8.513a1.011,1.011,0,0,1-.079,1.864l-3.929,1.448a1.011,1.011,0,0,0-.416,1.607l4.071,4.729a2.267,2.267,0,0,1-.26,3.216l-1.072.9a2.268,2.268,0,0,1-3.163-.242l-4.084-4.656a1.01,1.01,0,0,0-1.629.151l-2.1,3.542a1.01,1.01,0,0,1-1.838-.229" transform="translate(-55.499 -12.037)" fill="#fff"/>
      <path id="Trazado_459" data-name="Trazado 459" d="M99.518,11.709a10.454,10.454,0,0,0-3.5-9.153A10.444,10.444,0,0,0,80.293,15.947a10.477,10.477,0,0,0,9.434,4.906c1.046-.068,1.053-1.7,0-1.636A8.881,8.881,0,0,1,80.742,7.855a8.809,8.809,0,0,1,17.14,3.854c-.129,1.042,1.509,1.033,1.636,0" transform="translate(-43.048 0)" fill="#fff"/>
      <path id="Trazado_460" data-name="Trazado 460" d="M100.51,15.765a6.017,6.017,0,1,0-11.279,2.916,6.1,6.1,0,0,0,5.052,3.091c.8.043.8-1.209,0-1.251a4.763,4.763,0,1,1,4.977-4.756.626.626,0,0,0,1.251,0" transform="translate(-48.372 -5.331)" fill="#fff"/>
      <path id="Trazado_461" data-name="Trazado 461" d="M68.938,21.112a13.027,13.027,0,0,1,.078-1.39,5.9,5.9,0,0,0-.963-.08,6.134,6.134,0,0,0-2.162.351q-.936.351-.935.584v36q0,2.279,1.052,3.1a4.243,4.243,0,0,0,2.688.818h.876a3.936,3.936,0,0,0,2.6-.847A3.821,3.821,0,0,0,73.2,56.575V30.619a12.737,12.737,0,0,1-4.258-9.507" transform="translate(-35.504 -10.736)" fill="#0090df"/>
      <path id="Trazado_462" data-name="Trazado 462" d="M93.122,49.824a5.01,5.01,0,0,0-.459,2.316V73.107a3.7,3.7,0,0,0,1.052,3.07,4.27,4.27,0,0,0,2.688.811h.876a3.961,3.961,0,0,0,2.6-.84,3.768,3.768,0,0,0,1.022-3.041V59.845l-2.837-9.511c-.395.037-.794.06-1.2.06a12.662,12.662,0,0,1-3.745-.57" transform="translate(-50.648 -27.233)" fill="#0090df"/>
    </g>
  </g>
</svg>
